<svg width="24" height="24" viewBox="0 0 24 24" fill="none" xmlns="http://www.w3.org/2000/svg">
<path d="M9.70575 1.23157C7.8332 1.62991 6.09698 2.50994 4.66866 3.7847C3.24034 5.05946 2.16935 6.68484 1.5615 8.50024C0.953663 10.3156 0.830011 12.2582 1.20277 14.136C1.57552 16.0138 2.43179 17.7619 3.68695 19.2075C3.83646 19.3872 3.92485 19.6099 3.93934 19.8433C3.95382 20.0767 3.89365 20.3086 3.76752 20.5055L3.2619 21.3201C3.15853 21.4867 3.10156 21.6779 3.09688 21.8739C3.0922 22.0699 3.13999 22.2635 3.23529 22.4349C3.3306 22.6062 3.46996 22.7489 3.63895 22.8483C3.80794 22.9477 4.00042 23.0001 4.19647 23.0001H11.6811C14.5246 23.0308 17.2734 21.9796 19.3709 20.0595C21.4684 18.1394 22.7577 15.4938 22.9777 12.6587C23.0782 10.9669 22.787 9.2748 22.1265 7.71403C21.4661 6.15327 20.4543 4.76599 19.17 3.66022C17.8857 2.55444 16.3636 1.76001 14.722 1.33876C13.0804 0.917522 11.3638 0.880839 9.70575 1.23157ZM11.997 5.00012C12.3013 5.00015 12.5987 5.09039 12.8517 5.25946C13.1047 5.42852 13.3018 5.6688 13.4183 5.94992C13.5347 6.23103 13.5651 6.54036 13.5058 6.83878C13.4464 7.13721 13.2999 7.41132 13.0847 7.62646C12.8695 7.84161 12.5954 7.98812 12.297 8.04747C11.9986 8.10682 11.6892 8.07635 11.4081 7.9599C11.127 7.84346 10.8867 7.64627 10.7177 7.39328C10.5487 7.14028 10.4584 6.84284 10.4584 6.53857C10.4585 6.13054 10.6206 5.73923 10.9091 5.45072C11.1977 5.16221 11.589 5.00013 11.997 5.00012ZM13.2275 18.0001H11.997C11.8657 18.0002 11.7356 17.9743 11.6143 17.9241C11.4929 17.8738 11.3827 17.8002 11.2898 17.7073C11.197 17.6144 11.1233 17.5042 11.0731 17.3828C11.0228 17.2615 10.997 17.1315 10.997 17.0001V11.8463H10.7665C10.5013 11.8463 10.247 11.741 10.0594 11.5534C9.8719 11.3659 9.76654 11.1115 9.76654 10.8463C9.76654 10.5811 9.8719 10.3267 10.0594 10.1392C10.247 9.95167 10.5013 9.84631 10.7665 9.84631H11.997C12.1283 9.84628 12.2584 9.87212 12.3797 9.92236C12.5011 9.97261 12.6113 10.0463 12.7042 10.1391C12.7971 10.232 12.8707 10.3422 12.921 10.4636C12.9712 10.5849 12.997 10.715 12.997 10.8463V16.0001H13.2275C13.4927 16.0001 13.7471 16.1055 13.9346 16.293C14.1221 16.4806 14.2275 16.7349 14.2275 17.0001C14.2275 17.2653 14.1221 17.5197 13.9346 17.7072C13.7471 17.8948 13.4927 18.0001 13.2275 18.0001Z" fill="#2e90fa"/>
</svg>
